<?xml version="1.0" encoding="UTF-8"?>
<svg id="Layer_2" data-name="Layer 2" xmlns="http://www.w3.org/2000/svg" viewBox="0 0 168.46 166.87">
  <g id="_레이어_1" data-name="레이어 1">
    <path d="M112.03,133.41c-4.96,5.29-16.82,15.35-24.69,12.37-2.33-.88-4.18-2.93-4.81-5.34-.89-3.39,.54-6.91,1.97-10.1,1.03-2.31,3.91-7.92,1.84-10.26-1.76-1.99-5.72-.04-7.49,.99-12.47,7.25-17.67,22.45-27.61,32.9-6.52,6.86-15.46,11.61-24.9,12.69-8.52,.97-19.18-1.11-22.49-10.17-1.32-3.59-1.25-7.56-.62-11.28,1.73-7.91,8.95-14.35,16.22-17.5,17.14-8.05,56.8-26.69,63.75-29.95,5.4-2.53,11.61-5.56,15.5-10.22,.95-1.14,1.79-2.66,1.27-4.05-1.71-4.58-10.21-1.33-13.34-.74-5.07,.97-10.35,1.72-15.44,.86-5.07-.67-9.33-3.76-11.69-8.34-2.59-7.11,0-15.68,4.02-20.8,3.41-4.56,8.13-8.21,12.76-11.58,5.79-4.4,11.79-7.72,14.98-14.01,5.28-12.5-24.11-7.06-38.77,10.78-2.18,2.64-4.11,5.4-5.59,8.38-2.4,4.83-3.38,10.14-3.39,15.51s1.33,9.81,1.86,14.87c1.12,10.65-3.1,24.39-13.41,29.31-9.09,4.33-20.79,.99-26.66-7.06-6.79-8.74-6.23-20.2-2.93-30.45,3.52-11.28,10.8-21.51,18.55-30.03,5.47-6.23,11.24-12.12,17.74-17.29C51.89,12.4,67.63,5.11,83.98,1.84c8.93-1.71,18.39-3.12,27.13,.06,15.96,5.86,19.37,18.82,7.57,31.2-4.72,5.17-10.32,8.19-16.19,11.96-4.73,2.99-10.43,6.6-13.13,8.31-4.88,3.09-10.6,7.21-13.32,12.48-.57,1.11-.88,2.39-.62,3.61,.96,4.47,5.72,4.8,9.48,4.35,5.69-.68,11.14-2.29,16.93-2.7,3.9-.28,7.99,.09,11.34,2.1,13.06,7.86-2.08,25.72-7.87,33.17-2.87,4.23-10.06,11.7-5.65,16.54,1.05,.98,2.47,.41,3.48-.38,11.64-8.05,23.91-27.24,38.9-24.38,5.35,1.21,9.05,6.51,9.1,11.97,.2,3.4-.4,6.98-.9,10.11-.38,2.31-.9,4.57-.47,6.92,.07,.38,.2,.82,.57,.97,.33,.14,.7-.02,1.01-.19,1.51-.83,2.78-2.02,4.16-3.05,4.69-3.51,11-2.24,12.56,3.84,2.01,9.74-3.61,19.51-12.29,24.2-6.94,4.04-17.15,4.6-22.11-2.49-5.42-7.97,3.22-22.87-3.11-27.58-5.1-2.51-13.08,5.16-18.34,10.39,0,0-.17,.17-.17,.17Z"/>
  </g>
</svg>